<?xml version="1.0" encoding="UTF-8" standalone="no"?>
<!-- Generator: Adobe Illustrator 16.0.0, SVG Export Plug-In . SVG Version: 6.00 Build 0)  -->

<svg
   xmlns:dc="http://purl.org/dc/elements/1.1/"
   xmlns:cc="http://creativecommons.org/ns#"
   xmlns:rdf="http://www.w3.org/1999/02/22-rdf-syntax-ns#"
   xmlns:svg="http://www.w3.org/2000/svg"
   xmlns="http://www.w3.org/2000/svg"
   xmlns:sodipodi="http://sodipodi.sourceforge.net/DTD/sodipodi-0.dtd"
   xmlns:inkscape="http://www.inkscape.org/namespaces/inkscape"
   version="1.1"
   id="Capa_1"
   x="0px"
   y="0px"
   width="100.00001"
   height="100.00001"
   viewBox="0 0 100.00001 100"
   xml:space="preserve"
   sodipodi:docname="settings.svg"
   inkscape:version="0.92.4 (5da689c313, 2019-01-14)"
   inkscape:export-filename="C:\Users\Temp\Documents\19-2\CSP2108\NearestNeighboors\settings.png"
   inkscape:export-xdpi="98.300003"
   inkscape:export-ydpi="98.300003"><metadata
   id="metadata41"><rdf:RDF><cc:Work
       rdf:about=""><dc:format>image/svg+xml</dc:format><dc:type
         rdf:resource="http://purl.org/dc/dcmitype/StillImage" /><dc:title></dc:title></cc:Work></rdf:RDF></metadata><defs
   id="defs39" /><sodipodi:namedview
   pagecolor="#000000"
   bordercolor="#666666"
   borderopacity="1"
   objecttolerance="10"
   gridtolerance="10"
   guidetolerance="10"
   inkscape:pageopacity="0"
   inkscape:pageshadow="2"
   inkscape:window-width="1366"
   inkscape:window-height="706"
   id="namedview37"
   showgrid="false"
   inkscape:pagecheckerboard="true"
   fit-margin-top="0"
   fit-margin-left="0"
   fit-margin-right="0"
   fit-margin-bottom="0"
   inkscape:zoom="1"
   inkscape:cx="17.58115"
   inkscape:cy="-26.300004"
   inkscape:window-x="-8"
   inkscape:window-y="-8"
   inkscape:window-maximized="1"
   inkscape:current-layer="g4" />
<g
   id="g4"
   transform="translate(27.499998,102.10001)">
	<path
   d="m 69.58172,-52.100004 c 0,-3.501946 -2.52334,-7.23541 -5.63424,-8.336576 -3.1109,-1.101168 -6.12646,-3.797666 -7.0039,-5.924125 -0.87742,-2.12646 -0.6498,-6.173152 0.77044,-9.153698 1.41828,-2.980546 0.55836,-7.406616 -1.9183,-9.883268 -2.4747,-2.476654 -6.90078,-3.334632 -9.88326,-1.916344 -2.98054,1.418288 -7.0214,1.649806 -9.14202,0.772374 -2.12062,-0.877432 -4.81908,-3.896887 -5.92414,-7.007783 -1.107,-3.110894 -4.84434,-5.632296 -8.3463,-5.632296 -3.50194,0 -7.2393,2.521402 -8.3463,5.632296 -1.107,3.110896 -3.8035,6.130351 -5.92412,7.007783 -2.12062,0.877432 -6.16342,0.645914 -9.14398,-0.772374 -2.98055,-1.418288 -7.40661,-0.56031 -9.88327,1.916344 -2.47666,2.476652 -3.33464,6.900778 -1.91634,9.883268 1.41828,2.98249 1.64396,7.025292 0.76264,9.149806 -0.88132,2.124515 -3.88716,4.826849 -6.99806,5.928017 -3.11088,1.101166 -5.63228,4.83463 -5.63228,8.336576 0,3.501946 2.5214,7.2393 5.63228,8.346304 3.1109,1.105058 6.12064,3.807392 7.00196,5.928017 0.88132,2.118676 0.65174,6.159532 -0.76654,9.140078 -1.4183,2.980546 -0.56032,7.406616 1.91634,9.883268 2.47666,2.474708 6.90078,3.334632 9.88327,1.916344 2.9825,-1.418288 7.02336,-1.64786 9.14398,-0.768484 2.12256,0.879378 4.81712,3.906617 5.92412,7.011675 1.107,3.105058 4.84436,5.624514 8.3463,5.624514 3.50196,0 7.2393,-2.519456 8.3463,-5.624514 1.10506,-3.105058 3.79962,-6.128405 5.92024,-7.011675 2.12062,-0.881322 6.16732,-0.649804 9.14592,0.770428 2.98248,1.418288 7.40856,0.558366 9.88326,-1.916342 2.47666,-2.476654 3.33658,-6.902724 1.9183,-9.88327 -1.4183,-2.98249 -1.65176,-7.023346 -0.77432,-9.143968 0.87742,-2.120623 3.89882,-4.819067 7.00972,-5.924125 3.1109,-1.10895 5.6323,-4.846304 5.6323,-8.34825 z M 22.5,-34.823737 c -9.55252,0 -17.27626,-7.723737 -17.27626,-17.256813 0,-9.552528 7.72374,-17.276265 17.27626,-17.276265 9.53114,0 17.25682,7.723737 17.25682,17.276265 0,9.533076 -7.72374,17.256813 -17.25682,17.256813 z"
   id="path2"
   style="fill:none;fill-opacity:1;stroke:#00fc00;stroke-width:5.83657598;stroke-miterlimit:4;stroke-dasharray:70.03891613, 5.83657634999999964;stroke-dashoffset:0;stroke-opacity:1"
   inkscape:connector-curvature="0"
   inkscape:export-xdpi="98.300003"
   inkscape:export-ydpi="98.300003"
   inkscape:export-filename="C:\Users\Temp\Documents\19-2\CSP2108\NearestNeighboors\settings.png" />
</g>
<g
   id="g6"
   transform="translate(27.499998,102.10001)">
</g>
<g
   id="g8"
   transform="translate(27.499998,102.10001)">
</g>
<g
   id="g10"
   transform="translate(27.499998,102.10001)">
</g>
<g
   id="g12"
   transform="translate(27.499998,102.10001)">
</g>
<g
   id="g14"
   transform="translate(27.499998,102.10001)">
</g>
<g
   id="g16"
   transform="translate(27.499998,102.10001)">
</g>
<g
   id="g18"
   transform="translate(27.499998,102.10001)">
</g>
<g
   id="g20"
   transform="translate(27.499998,102.10001)">
</g>
<g
   id="g22"
   transform="translate(27.499998,102.10001)">
</g>
<g
   id="g24"
   transform="translate(27.499998,102.10001)">
</g>
<g
   id="g26"
   transform="translate(27.499998,102.10001)">
</g>
<g
   id="g28"
   transform="translate(27.499998,102.10001)">
</g>
<g
   id="g30"
   transform="translate(27.499998,102.10001)">
</g>
<g
   id="g32"
   transform="translate(27.499998,102.10001)">
</g>
<g
   id="g34"
   transform="translate(27.499998,102.10001)">
</g>
</svg>